<?xml version="1.0" standalone="no"?>
<!DOCTYPE svg PUBLIC "-//W3C//DTD SVG 20010904//EN"
 "http://www.w3.org/TR/2001/REC-SVG-20010904/DTD/svg10.dtd">
<svg version="1.0" xmlns="http://www.w3.org/2000/svg"
 width="16.000000pt" height="16.000000pt" viewBox="0 0 16.000000 16.000000"
 preserveAspectRatio="xMidYMid meet">
<metadata>
Created by potrace 1.11, written by Peter Selinger 2001-2013
</metadata>
<g transform="translate(0.000000,16.000000) scale(0.005161,-0.005161)"
fill="#000000" stroke="none">
<path d="M1390 3040 c-362 -45 -643 -182 -896 -434 -224 -225 -354 -469 -416
-779 -31 -158 -31 -396 0 -554 62 -310 192 -554 416 -779 228 -227 492 -366
801 -420 135 -24 375 -24 510 0 309 54 573 193 801 420 224 225 354 469 416
779 31 158 31 396 0 554 -62 310 -192 554 -416 779 -227 226 -496 368 -796
418 -119 21 -321 28 -420 16z m872 -551 c221 -47 361 -271 304 -485 -42 -157
-159 -266 -320 -295 -278 -52 -525 214 -452 487 56 212 257 337 468 293z
m-672 -1049 l0 -600 -600 0 -600 0 0 600 0 600 600 0 600 0 0 -600z m1289 103
c-21 -26 -1170 -1213 -1175 -1213 -2 0 -4 277 -4 615 l0 615 596 0 c565 0 596
-1 583 -17z"/>
</g>
</svg>
